<svg width="1896" height="637" fill="none" xmlns="http://www.w3.org/2000/svg"><path d="M747 138.607h76.6v306.429h76.6V62h-76.6c-42.13 0-76.6 34.473-76.6 76.607zM976.8 445.036h76.6V291.821c0-42.133-34.47-76.607-76.6-76.607v229.822zM1130 215.214v229.822h76.6V291.821h76.6v76.608c0 42.134 34.47 76.607 76.6 76.607V291.821c0-42.133-34.47-76.607-76.6-76.607H1130zM1819.4 215.214h-76.6v-76.607c0-42.134-34.47-76.607-76.6-76.607v306.429H1513v-76.608h76.6v-76.607H1513c-42.13 0-76.6 34.473-76.6 76.607v76.608c0 42.133 34.47 76.607 76.6 76.607h229.8V291.821h76.6v76.608c0 42.133 34.47 76.607 76.6 76.607V291.821c0-42.134-34.47-76.607-76.6-76.607zM976.8 138.607h76.6c0-42.134-34.47-76.607-76.6-76.607v76.607zM855.344 574.45H823.6v-51.991h30.98v8.542h-21.571v12.924h19.277v8.54h-19.277v13.443h22.335v8.542zM994.502 522.459h11.018l-18.055 25.476 18.745 26.515h-11.019l-13.845-19.533-13.769 19.533h-11.015l18.74-26.515-17.899-25.476h11.015l13.156 18.791 12.928-18.791zM1144.34 562.567l3.59 6.832c-1.68 1.734-4.1 3.145-7.26 4.234-3.11 1.089-6.4 1.635-9.87 1.635-8.16 0-14.81-2.452-19.96-7.353-5.1-4.902-7.65-11.389-7.65-19.46 0-7.724 2.42-14.136 7.26-19.236 4.8-5.051 11.5-7.576 20.12-7.576 6.83 0 12.27 1.758 16.29 5.273l-4.2 6.759c-3.62-2.328-7.65-3.491-12.09-3.491-5.1 0-9.28 1.659-12.54 4.976-3.27 3.318-4.9 7.75-4.9 13.295 0 5.447 1.71 9.853 5.13 13.221 3.46 3.367 7.92 5.05 13.38 5.05 4.69 0 8.93-1.387 12.7-4.159zM1296.12 574.45h-9.33v-22.207h-24.48v22.207h-9.41v-51.991h9.41v21.242h24.48v-21.242h9.33v51.991zM1409.17 574.449h-9.49l22.64-52.139h8.26l22.65 52.139h-10.02l-5.58-13.295h-22.88l-5.58 13.295zm24.86-21.836l-7.8-18.494-7.88 18.494h15.68zM1602.61 522.459v51.991h-7.51l-29.44-36.022v36.022h-8.79v-51.991h7.49l29.45 36.172v-36.172h8.8zM1748.25 554.991h-12.93v-8.542h21.73v21.54c-2.3 2.228-5.37 4.01-9.18 5.348-3.83 1.287-7.45 1.931-10.87 1.931-8.67 0-15.5-2.426-20.5-7.279-4.94-4.804-7.42-11.314-7.42-19.534 0-7.625 2.45-13.988 7.34-19.088 4.91-5.149 11.35-7.724 19.36-7.724 6.83 0 12.57 1.758 17.21 5.273l-3.97 7.279c-1.33-1.239-3.09-2.204-5.29-2.897a21.063 21.063 0 00-6.8-1.114c-5.35 0-9.67 1.635-12.94 4.902-3.3 3.219-4.96 7.675-4.96 13.369 0 5.497 1.66 9.928 4.96 13.295 3.27 3.317 7.66 4.976 13.17 4.976 1.94 0 4.03-.346 6.26-1.039 2.25-.743 3.86-1.585 4.83-2.526v-8.17zM1896 574.45h-31.75v-51.991h30.98v8.542h-21.57v12.924h19.28v8.54h-19.28v13.443H1896v8.542zM161.588 350.995l17.874-134.621L24.187 108.565l141.87 48.039 33.512-51.391L321.89 29.245l269.775 148.586L605.63 404.62 485.543 571.64l-94.953 14.523 49.152-89.934v-86.581l-35.747-67.591-36.304-24.019-55.854 57.535v60.887l-43.567 40.777-55.296 6.703-24.576 13.966-40.215-12.849-16.756-60.328 30.161-42.453v-31.281z" fill="#fff"/><path d="M409.58 107.45c-29.603-6.144-61.999-4.469-61.999-4.469s-10.612 49.156-76.519 62.005c.557 0 87.132 29.604 138.518-57.536zM436.39 553.208c35.746-27.929 62.556-66.473 74.844-110.043.56-1.675 5.586-4.469 8.937-6.703 5.585-3.352 11.171-6.144 12.288-10.613 2.234-12.848 3.351-26.254 3.351-39.661 0-5.026-5.026-10.054-10.054-15.081-3.909-3.352-7.819-7.262-7.819-10.055-5.586-50.832-29.044-98.312-66.466-132.945l-3.91 3.909c36.306 34.075 59.764 80.438 64.79 129.594.56 4.469 5.028 8.938 9.496 13.406 3.909 3.352 8.378 8.38 8.378 10.614 0 12.847-1.117 25.696-3.351 38.543-.558 2.234-5.586 4.468-9.495 6.703-5.585 2.793-10.613 5.586-11.73 10.055-13.405 47.481-44.124 88.817-84.898 115.629 7.261-15.641 30.161-66.473 42.449-92.169l-2.234-82.671-70.935-68.707-40.215 5.586-44.125 71.5s20.667 26.253-8.377 56.977c-28.487 30.164-50.828 36.867-50.828 36.867l-20.666-11.172c6.144-7.82 18.431-19.551 27.927-27.372 16.197-13.406 32.396-14.523 32.396-29.047.558-30.164-31.838-21.784-31.838-21.784l-11.729 11.172-5.027 41.336-24.576 30.722-2.792-.558-40.215-8.938s24.576-12.848 28.485-27.371c3.91-13.965-7.82-60.329-8.377-63.121.557.558 11.728 10.055 16.756 25.695 8.936-24.578 20.665-48.039 24.016-50.273 3.352-2.234 48.594-26.255 48.594-26.255l-15.081 39.661 11.171-6.145 26.81-65.914s26.252-12.847 45.8-12.847c35.189-.559 87.133-43.57 63.674-120.656 6.702 2.792 122.879 60.886 142.987 174.839 15.081 87.7-34.63 169.812-118.411 217.293z" fill="#94A6C3"/><path d="M303.458 119.738c12.846-15.083 7.82-37.427 7.82-37.427l-37.423 55.302c-.558 0 13.405.558 29.603-17.875zM177.785 421.938l4.469-22.344s-18.431 32.398-20.108 36.867c-1.675 5.028 1.117 13.965 8.379 13.406 7.26-.558 16.197-11.172 16.197-18.992 0-10.055-8.937-8.937-8.937-8.937z" fill="#1B314F"/><path d="M509.559 66.671s27.927 1.117 56.971 4.469C501.182 19.75 439.183 4.667 388.914 4.667c-69.259 0-116.176 28.488-118.968 30.164L291.728.198S204.596-8.18 173.875 83.987c-7.819-19.55-15.08-48.039-15.08-48.039s-45.242 39.66-24.018 105.575C82.833 122.531 8.547 96.276 5.755 95.718c-3.91-.56-5.027 1.117-5.027 1.117s-1.117 1.675 2.234 4.469c6.144 5.027 123.438 91.609 149.131 108.367-5.586 20.11-5.586 29.605 0 39.102 7.819 12.847 8.377 19.55 7.26 29.047-1.117 9.495-11.17 91.609-13.405 101.664-2.234 10.054-25.692 45.804-24.576 56.417 1.119 10.614 15.641 55.859 28.486 60.887 9.496 3.352 32.955 10.614 48.594 10.614 5.586 0 10.612-1.118 12.846-3.351 9.496-8.38 12.288-10.055 18.99-10.055h1.677c2.792 0 6.143.558 10.053.558 8.937 0 20.666-1.675 29.045-9.495 12.288-12.291 33.511-29.049 40.215-36.869 8.377-10.612 12.845-25.136 10.611-39.659-1.675-13.407 5.586-25.138 13.963-36.868 10.613-13.965 30.161-39.101 30.161-39.101 38.54 29.047 62.557 73.175 62.557 122.331 0 87.142-75.962 157.525-169.795 157.525-14.522 0-28.487-1.676-42.449-5.028 43.007 15.083 79.312 20.109 108.915 20.109 63.114 0 96.627-22.901 96.627-22.901s-11.729 15.081-30.72 32.398h.558c104.448-14.523 155.275-100.547 155.275-100.547s-3.909 27.93-8.937 46.922c139.078-104.458 115.619-235.169 115.06-239.637 1.117 1.675 15.081 18.433 22.341 27.37 22.342-230.14-165.886-304.433-165.886-304.433zM295.638 434.226c-2.234 2.792-11.73 11.172-18.432 17.317-6.703 6.144-13.964 12.288-19.55 17.874-2.233 2.234-6.701 3.351-13.403 3.351H227.496c8.378-11.172 32.954-36.867 41.331-42.453 10.055-6.703 15.081-13.406 8.938-25.136-6.144-11.731-22.342-8.937-22.342-8.937s9.495-3.911 17.874-3.911c-10.613-2.793-24.018 0-30.161 6.145-6.703 6.144-5.586 27.93-8.379 41.894-2.792 14.523-12.288 21.786-26.81 35.192-7.82 7.261-13.405 9.497-17.874 9.497-9.494-1.677-20.666-4.47-28.486-7.263-5.585-7.261-13.963-31.281-16.197-41.336 1.675-5.586 8.379-17.317 11.729-24.02 6.702-12.847 10.613-20.109 11.73-26.812 2.234-9.496 9.496-68.149 12.288-92.727 7.261 9.497 17.315 25.137 15.081 35.192 16.197-22.903 4.468-45.247-1.117-54.184-5.028-8.938-11.73-26.813-6.145-45.805 5.586-18.992 25.693-71.5 25.693-71.5s6.703 11.731 16.199 9.497c9.494-2.234 86.015-117.305 86.015-117.305s20.665 45.246-1.117 78.203c-22.342 32.957-44.125 39.102-44.125 39.102s30.719 5.586 59.205-15.083c11.729 27.372 22.899 55.86 23.459 59.77-1.677 3.91-24.018 57.535-26.251 60.886-1.119 1.118-8.938 3.352-14.524 4.469-9.494 2.794-15.08 4.469-17.314 6.145-3.909 3.352-21.783 52.508-30.161 76.527-10.054 2.794-20.107 8.38-27.368 19.552 3.909-2.794 16.197-4.469 25.134-5.586 7.82-.56 31.837 12.289 37.981 36.308v1.117c1.117 8.937-1.675 17.317-6.144 24.02zm-52.502 6.703c5.026-7.262 4.467-19.551 5.026-23.461.559-3.911 1.676-11.172 6.144-12.289 4.469-1.117 15.08.558 15.08 8.378 0 7.263-7.819 8.938-13.405 13.966-3.909 3.909-11.728 12.289-12.845 13.406zm222.857-106.692c5.585-28.488 6.143-53.066 4.468-73.175 21.783 29.047 35.188 64.238 39.098 100.547.558 4.468 5.026 8.937 9.495 13.406 3.91 3.352 8.379 7.82 8.379 10.613 0 12.848-1.117 25.695-3.352 38.543-.559 1.675-5.585 4.469-9.496 6.703-5.585 2.793-10.611 5.586-11.728 10.055-12.288 43.011-38.54 80.996-73.728 107.809 51.944-54.184 77.079-143.559 36.864-214.501zm-35.189 219.528c36.306-27.93 64.233-67.031 76.521-111.161.558-1.675 5.585-4.469 8.937-6.703 5.585-2.792 11.171-6.144 12.288-10.613 2.234-12.848 3.351-26.254 3.351-39.66 0-5.027-5.026-10.055-10.054-15.082-2.793-3.351-7.262-7.262-7.262-10.054-4.468-40.778-20.665-79.321-45.8-111.161-11.171-67.032-55.854-87.699-56.971-88.258 1.117 1.676 30.161 43.57 10.054 92.727-20.666 49.715-73.727 41.895-78.195 42.453-4.468 0-21.784 22.343-43.566 63.679-2.794-1.117-14.524-3.909-27.927-1.675 10.052-27.93 25.133-67.59 27.927-70.942 1.117-1.117 9.494-3.351 15.08-5.027 10.611-2.793 15.639-4.468 17.315-6.703 1.117-1.676 6.703-14.523 12.288-27.929 5.026 0 17.872-1.118 18.989-1.677 1.117-1.117 11.73-28.487 11.73-31.839 0-2.794-21.782-56.977-30.161-77.645 3.91-4.469 7.82-10.055 11.73-16.199 114.5 12.289 203.867 109.485 203.867 227.347 0 90.492-53.062 169.255-130.141 206.122z" fill="#1B314F"/><path d="M282.234 252.127c10.612-12.289 5.026-35.192-14.522-39.101C272.738 201.294 280 177.833 280 177.833s-56.971 89.375-61.999 91.052c-5.026 1.675-10.053-17.875-10.053-17.875-10.612 40.777 17.873 46.363 21.224 33.516 15.639-3.911 42.449-20.669 53.062-32.399z" fill="#1B314F"/><path d="M233.641 273.913l29.044-49.715s16.756 8.379 8.377 21.786c-10.611 15.64-37.421 27.929-37.421 27.929z" fill="#FFD923"/><path d="M592.779 504.054c-8.379 11.172-17.873 22.903-29.044 34.075 72.051-138.531 3.351-265.333.558-270.359 5.027 5.026 10.054 10.612 14.522 15.64 55.296 61.445 61.999 153.613 13.964 220.644zM659.804 325.86c-25.135-67.589-60.882-125.125-139.635-177.073-75.962-50.274-157.509-46.364-161.977-45.805h-1.118c2.793-1.117 5.586-1.675 8.378-2.234 17.315-5.586 39.657-10.055 61.999-12.849 59.205-8.378 118.968 11.731 159.743 54.743.557.559.557.559 1.117 1.117 46.358 49.156 70.376 110.601 71.493 182.101zM502.295 49.36c-83.223-15.64-136.843-7.82-175.382 6.703-1.117-4.468-5.027-13.406-8.378-20.668-11.729 13.965-24.017 30.723-31.837 41.337-21.224 14.523-30.161 28.488-30.161 28.488 12.288-41.894 48.035-73.176 91.601-80.996 12.288-2.235 25.693-3.352 40.215-3.352 38.539.559 77.079 10.055 113.942 28.488zM194.54 156.61c-65.349-2.234-43.567-78.203-42.45-82.672 0 .56 4.469 59.771 42.45 82.672zM258.772 19.75c-50.269 30.164-40.215 102.222-40.215 102.222-48.034-73.175 36.305-100.546 40.215-102.221z" fill="#D82122"/><path d="M176.111 176.713c3.351 2.792 6.702 7.82 2.793 15.081-2.234 3.911-5.585 3.352-10.613 1.117-6.702-3.351-46.917-26.812-83.222-50.831 41.332 14.524 83.222 30.164 89.925 33.516l1.117 1.117z" fill="#fff"/><path d="M357.661 73.98l48.193-12.327-28.58-3.362s-14.569 5.603-19.613 15.69zM173.856 214.06s10.647-5.042 16.25-19.612C181.701 201.173 152 205.656 152 205.656c6.725 5.602 21.856 8.404 21.856 8.404zM172.735 104.8c-6.724-5.043-2.242-22.414-2.242-22.414s-21.295 20.172 2.242 22.414z" fill="#1B314F"/><path d="M273.603 168.118s21.855-6.163 44.271-39.223 1.121-78.447 1.121-78.447-42.029 63.318-67.807 96.378c0 0 1.12 3.362.56 11.206-1.12 7.845 7.286 14.568 7.286 14.568l14.569-4.482zm39.228-82.929s5.603 22.413-7.286 37.543c-15.69 18.49-29.7 17.93-29.7 17.93l36.986-55.473z" fill="#fff"/></svg>