<svg width="424" height="153" fill="none" xmlns="http://www.w3.org/2000/svg"><path d="M183.585 78.06a19.969 19.969 0 015.625-14.76 19.896 19.896 0 0114.579-6.035c4.015-.259 7.994.891 11.253 3.253a17.323 17.323 0 016.605 9.687l-6.338 2.104a11.014 11.014 0 00-4.137-6.505 10.983 10.983 0 00-7.383-2.191 13.187 13.187 0 00-9.749 4.321 13.233 13.233 0 00-3.382 10.126 13.208 13.208 0 003.452 9.999 13.17 13.17 0 009.679 4.239 11.862 11.862 0 007.43-2.31 11.885 11.885 0 004.405-6.422l6.163 1.999a17.854 17.854 0 01-6.686 9.76 17.803 17.803 0 01-11.312 3.425 19.654 19.654 0 01-14.619-5.92 19.74 19.74 0 01-5.585-14.77zm50.247 19.849h-6.478V57.265h6.478v15.956a10.178 10.178 0 0116.261 1.374 10.22 10.22 0 011.527 6.025V97.91h-6.513V81.743c0-3.507-1.506-6.067-5.602-6.067a5.7 5.7 0 00-5.673 6.172v16.06zm32.214-15.64l7.003-1.088c1.576-.21 2.031-.981 2.031-1.963 0-2.28-1.576-4.138-5.147-4.138a5.25 5.25 0 00-5.081 2.946 5.281 5.281 0 00-.522 1.998l-5.952-1.367a10.73 10.73 0 014.005-6.7 10.703 10.703 0 017.48-2.207c8.403 0 11.59 4.769 11.59 10.204V93.42c-.025 1.47.091 2.939.35 4.384h-6.058a16.627 16.627 0 01-.28-3.507 9.513 9.513 0 01-8.403 4.313 8.529 8.529 0 01-6.386-2.136 8.578 8.578 0 01-2.859-6.105 8.422 8.422 0 012.507-5.688 8.398 8.398 0 015.722-2.412zm9.034 4.313v-1.227l-7.003 1.052c-2.031.35-3.502 1.472-3.502 3.717a3.52 3.52 0 001.194 2.67 3.505 3.505 0 002.798.837 6.222 6.222 0 004.908-1.994 6.236 6.236 0 001.365-2.348c.278-.874.36-1.798.24-2.707zm17.438-29.878a4.27 4.27 0 014.236 4.279 4.236 4.236 0 11-8.473 0 4.28 4.28 0 011.239-3.013 4.268 4.268 0 012.998-1.266zm-3.222 41.205V70.59h6.443V97.91h-6.443zm21.36 0h-6.513V70.59h6.337v3.507a9.078 9.078 0 013.437-3.335 9.054 9.054 0 014.652-1.119c6.653 0 9.839 4.84 9.839 10.836v17.288h-6.478V81.744c0-3.507-1.505-6.067-5.602-6.067a5.734 5.734 0 00-4.283 1.95 5.744 5.744 0 00-1.389 4.502v15.78zm25.666 0V57.265h6.478V97.91h-6.478zm18.033-41.205c1.133 0 2.219.451 3.02 1.253a4.282 4.282 0 011.251 3.026 4.236 4.236 0 11-8.473 0 4.284 4.284 0 014.202-4.279zm-3.187 41.205V70.59h6.443V97.91h-6.443zm21.395 0h-6.513V70.59h6.337v3.507a9.078 9.078 0 013.437-3.335 9.054 9.054 0 014.652-1.119c6.653 0 9.839 4.84 9.839 10.836v17.288h-6.478V81.744c0-3.507-1.505-6.067-5.602-6.067a5.725 5.725 0 00-4.286 1.948 5.738 5.738 0 00-1.386 4.504v15.78zm39.987-15.78L424 97.908h-7.948l-8.019-11.152-3.502 3.507v7.61h-6.442V57.265h6.442v24.548l10.505-11.047h8.649L412.55 82.128zM66.109 32.401l38.166 21.953v44.08l-37.956 22.127L28.152 98.61V54.53L66.11 32.403zm0-32.402L52.103 8.136 14.006 30.298 0 38.434v76.483l14.006 8.065 38.167 21.952L66.179 153l14.006-8.136 38.062-22.127 14.006-8.136V38.083l-14.006-8.065L80.08 8.066 66.074 0h.035z" fill="#fff"/></svg>