<svg width="137" height="48" fill="none" xmlns="http://www.w3.org/2000/svg"><path d="M14.086 33.222V.778L.371 24.518l13.715 8.704z" fill="#FFE94D"/><path d="M14.086.778l13.698 23.74-13.698 8.704V.778z" fill="#FF9C92"/><path d="M.371 27.318l13.715 8.722v11.255" fill="#53D3E0"/><path d="M27.784 27.318L14.086 36.04v11.255" fill="#5A9DED"/><path opacity=".75" d="M14.086 16.741L.371 24.518l13.715 8.704v-16.48z" fill="#88D848"/><path opacity=".75" d="M14.086 16.741l13.698 7.777-13.698 8.704v-16.48z" fill="#CC71C3"/><path d="M36.67 15.938c.054 1.677 1.27 2.48 2.665 2.48.894 0 1.77-.357 2.128-1.178h2.325c-.519 2.176-2.504 3.318-4.56 3.318-2.486 0-4.953-1.677-4.953-5.333 0-3.532 2.342-5.351 4.97-5.351 2.504 0 4.632 1.659 4.632 5.048v1.016h-7.206zm.072-1.819h4.685c0-1.355-.947-2.123-2.217-2.123-1.144 0-2.253.625-2.468 2.123zm15.003 6.207h-1.627c-1.95 0-3.165-.606-3.165-3.353v-4.691h-1.878v-2.23h1.878V7.734l2.485-.678v2.996h2.057v2.23h-2.057v4.62c0 .713.197 1.23 1.234 1.23h1.055v2.194h.018zm11.444-6.635v6.635h-2.485v-6.421c0-1.16-.698-1.837-1.931-1.837-1.485 0-2.272 1.017-2.272 2.693v5.547h-2.485V6.128h2.503v5.44c.573-.98 1.377-1.694 3.13-1.694 2.342-.018 3.54 1.373 3.54 3.817zM68 15.938c.054 1.677 1.27 2.48 2.665 2.48.894 0 1.77-.357 2.128-1.178h2.324c-.518 2.176-2.503 3.318-4.56 3.318-2.485 0-4.953-1.677-4.953-5.333 0-3.532 2.343-5.351 4.971-5.351 2.504 0 4.632 1.659 4.632 5.048v1.016h-7.207zm.054-1.819h4.685c0-1.355-.948-2.123-2.217-2.123-1.145 0-2.236.625-2.468 2.123zm15.468-1.784h-.662c-1.735 0-2.682.946-2.682 2.961v5.03H77.69V10.052h2.468v1.517c.518-1.124 1.484-1.641 2.682-1.641h.68v2.407zm3.612 3.603c.053 1.677 1.27 2.48 2.664 2.48.894 0 1.77-.357 2.128-1.178h2.324c-.518 2.176-2.503 3.318-4.56 3.318-2.485 0-4.952-1.677-4.952-5.333 0-3.532 2.342-5.351 4.97-5.351 2.504 0 4.632 1.659 4.632 5.048v1.016h-7.206zm.053-1.819h4.685c0-1.355-.947-2.123-2.217-2.123-1.144 0-2.253.625-2.468 2.123zm18.526 6.207h-2.432v-1.463c-.608.964-1.449 1.57-2.861 1.57-2.164 0-3.702-1.373-3.702-4.013v-6.368h2.486v6.207c0 1.392.733 1.998 1.806 1.998 1.162 0 2.217-.856 2.217-3.228v-4.977h2.486v10.274zm17.899-6.92v6.938h-2.486v-6.457c0-1.213-.572-1.783-1.645-1.783-1.18 0-1.985.713-1.985 2.461v5.779h-2.485v-6.457c0-1.213-.626-1.783-1.663-1.783-1.162 0-1.967.73-1.967 2.443v5.797h-2.468V10.052h2.45v1.517c.322-.821 1.144-1.695 2.7-1.695 1.377 0 2.396.624 2.879 1.694.394-.73 1.18-1.694 3.04-1.694 2.235-.018 3.63 1.302 3.63 3.532zm-84.776 14.18c-.877 0-1.038.445-1.038 1.034v.678h1.896v2.23h-1.896v8.043h-2.485v-8.044h-1.538v-2.211h1.538v-.553c0-2.765 1.216-3.354 3.147-3.354h1.502v2.194h-1.127v-.018zm12.463 6.866c0 3.354-2.11 5.351-5.132 5.351-3.004 0-5.114-1.997-5.114-5.35 0-3.336 2.11-5.334 5.114-5.334 3.022 0 5.132 1.998 5.132 5.333zm-7.69 0c0 2.07 1.11 3.05 2.612 3.05 1.609 0 2.539-1.123 2.539-3.05 0-2.05-1.109-3.032-2.61-3.032-1.61 0-2.54 1.124-2.54 3.032zm19.08 5.137h-2.413v-1.462c-.608.963-1.449 1.57-2.861 1.57-2.164 0-3.702-1.374-3.702-4.014v-6.367h2.485v6.207c0 1.39.734 1.997 1.806 1.997 1.163 0 2.218-.856 2.218-3.228v-4.976h2.485v10.273h-.018zm12.357-6.635v6.635h-2.486v-6.42c0-1.16-.697-1.838-1.931-1.838-1.484 0-2.271 1.017-2.271 2.693v5.547h-2.486V29.316h2.468v1.498c.572-.963 1.43-1.677 3.147-1.677 2.36-.018 3.559 1.374 3.559 3.817zm12.75 6.635h-2.45v-1.57c-.555 1.178-1.842 1.802-3.273 1.802-2.521 0-4.631-1.766-4.631-5.369 0-3.549 2.11-5.315 4.631-5.315 1.341 0 2.61.535 3.219 1.534v-5.28h2.485V39.59h.018zm-2.433-5.154c0-2.123-1.359-3.122-2.7-3.122-1.448 0-2.682 1.017-2.682 3.122 0 2.069 1.234 3.103 2.682 3.103 1.341 0 2.7-.999 2.7-3.103zm13.912-1.748v6.92h-2.432V38.11c-.804 1.32-2.145 1.712-3.236 1.712-1.645 0-3.326-.874-3.326-3.05 0-2.568 2.342-3.014 3.29-3.157l2.146-.303c.465-.054 1.216-.268 1.216-1.106 0-.82-.734-1.124-1.681-1.124-1.377 0-2.057.642-2.164 1.516H90.71c.268-2.39 2.325-3.478 4.65-3.478 2.449 0 3.915 1.142 3.915 3.568zm-2.396 2.586v-.535c-.322.142-.662.214-1.234.303l-1.216.16c-.644.072-1.663.357-1.663 1.374 0 .785.608 1.177 1.502 1.177 1.449 0 2.611-1.052 2.611-2.48zm10.783 4.316h-1.628c-1.949 0-3.165-.606-3.165-3.353v-4.69h-1.877v-2.23h1.877v-2.32l2.486-.677v2.997h2.056v2.23h-2.056v4.619c0 .713.197 1.23 1.234 1.23h1.055v2.194h.018zm2.163-14.465h2.647v2.818h-2.647v-2.818zm.072 14.465h2.485V29.316h-2.485v10.273zm15.163-5.137c0 3.354-2.11 5.351-5.132 5.351-3.004 0-5.114-1.997-5.114-5.35 0-3.336 2.11-5.334 5.114-5.334 3.022 0 5.132 1.998 5.132 5.333zm-7.689 0c0 2.07 1.109 3.05 2.611 3.05 1.609 0 2.539-1.123 2.539-3.05 0-2.05-1.108-3.032-2.611-3.032-1.609 0-2.539 1.124-2.539 3.032zm19.348-1.498v6.635h-2.485v-6.42c0-1.16-.698-1.838-1.932-1.838-1.484 0-2.271 1.017-2.271 2.693v5.547h-2.485V29.316h2.468v1.498c.572-.963 1.43-1.677 3.147-1.677 2.342-.018 3.558 1.374 3.558 3.817z" fill="#fff"/></svg>