<svg width="211" height="48" viewBox="0 0 211 48" fill="none" xmlns="http://www.w3.org/2000/svg">
<g clip-path="url(#clip0)">
<path fill-rule="evenodd" clip-rule="evenodd" d="M15.8829 23.5075L23.6784 11.2227L31.4743 23.5075L23.6784 27.9742L15.8829 23.5075Z" fill="white"/>
<path fill-rule="evenodd" clip-rule="evenodd" d="M15.8829 25.6055L23.6784 30.0728L31.4743 25.6055L23.6784 36.2149L15.8829 25.6055Z" fill="white"/>
<path fill-rule="evenodd" clip-rule="evenodd" d="M27.2237 6.23898C26.013 6.80548 24.8341 7.43804 23.6924 8.13383C22.5436 7.43026 21.3547 6.79465 20.1318 6.23025C21.2733 5.45651 22.4528 4.74084 23.666 4.08594C24.8864 4.74472 26.0738 5.46327 27.2237 6.23898Z" fill="white"/>
<path fill-rule="evenodd" clip-rule="evenodd" d="M43.87 3.47062C39.5904 -0.82032 31.7922 -0.307748 23.6657 4.08565C24.8862 4.74443 26.0734 5.46298 27.2235 6.23868C30.3693 4.77984 33.3661 3.99774 35.9043 3.99774C38.1739 3.99774 40.0783 4.6218 41.3984 5.94557C44.1995 8.75439 43.8665 14.1907 41.1093 20.1631C41.882 21.3167 42.5984 22.5073 43.2561 23.7305C47.6377 15.582 48.1488 7.76156 43.8695 3.47062H43.87Z" fill="white"/>
<path fill-rule="evenodd" clip-rule="evenodd" d="M27.2236 6.23926C26.0129 6.80576 24.834 7.43832 23.6923 8.13412C30.0031 12.0489 35.3166 17.3853 39.2109 23.7194C39.907 22.5693 40.5407 21.3823 41.1092 20.1637C39.2648 17.4254 37.1608 14.8722 34.8268 12.5395C32.5026 10.1966 29.956 8.08653 27.2234 6.23926H27.2236Z" fill="white"/>
<path fill-rule="evenodd" clip-rule="evenodd" d="M43.2564 23.7311C42.6004 24.9502 41.8848 26.1361 41.1124 27.2845C40.5441 26.0624 39.9095 24.8723 39.2113 23.7198C39.9073 22.5697 40.541 21.3827 41.1095 20.1641C41.8822 21.3177 42.5986 22.5083 43.2564 23.7315V23.7311Z" fill="white"/>
<path fill-rule="evenodd" clip-rule="evenodd" d="M41.1125 27.2833C40.5442 26.0611 39.9095 24.8712 39.2112 23.7188C37.2813 26.8839 34.9797 29.8055 32.3559 32.4209C29.7528 35.0535 26.8442 37.3634 23.6923 39.3011C24.8328 39.9991 26.0118 40.6317 27.2236 41.196C29.9562 39.3488 32.5027 37.2387 34.8268 34.8959C37.1621 32.5676 39.2671 30.0182 41.1125 27.2833Z" fill="white"/>
<path fill-rule="evenodd" clip-rule="evenodd" d="M45.7596 29.606C45.1116 27.5728 44.2734 25.6056 43.2564 23.7305C42.6003 24.9492 41.8848 26.135 41.1124 27.2832C43.8671 33.2527 44.2 38.6829 41.3987 41.4888C38.5976 44.2976 33.1794 43.9612 27.2237 41.196C26.9785 41.3631 26.7332 41.5241 26.4877 41.6821C25.5697 42.2752 24.6285 42.8313 23.6662 43.3488C27.9921 45.689 32.2243 46.928 35.8842 46.928C39.0972 46.928 41.8693 45.9734 43.87 43.967C47.0011 40.827 47.6698 35.7277 45.7596 29.606Z" fill="white"/>
<path fill-rule="evenodd" clip-rule="evenodd" d="M27.2237 41.1966C26.9785 41.3636 26.7332 41.5246 26.4877 41.6827C25.5698 42.2758 24.6286 42.8318 23.6663 43.3493C22.4536 42.6934 21.274 41.9779 20.1318 41.2053C21.3547 40.6409 22.5436 40.0053 23.6924 39.3018C24.8331 39.9997 26.0119 40.6322 27.2237 41.1966Z" fill="white"/>
<path fill-rule="evenodd" clip-rule="evenodd" d="M16.7612 42.5172C11.9591 44.0256 8.12124 43.6594 5.95675 41.4889C3.79226 39.3186 3.4274 35.4698 4.93154 30.6547C5.2948 29.5023 5.73089 28.3742 6.23714 27.2774C5.46777 26.1314 4.75425 24.9487 4.09907 23.7334C3.08307 25.6076 2.24599 27.5738 1.59904 29.6059C-0.313794 35.7277 0.357874 40.8269 3.48575 43.967C5.44879 45.9324 8.17697 46.9309 11.4425 46.9309C13.6048 46.8982 15.7498 46.5367 17.8041 45.8589C19.8326 45.2091 21.7953 44.3687 23.6663 43.3488C22.4537 42.6929 21.2741 41.9773 20.132 41.2048C19.0377 41.7143 17.9119 42.1526 16.7614 42.5172H16.7612Z" fill="white"/>
<path fill-rule="evenodd" clip-rule="evenodd" d="M20.1317 41.2056C21.3545 40.6412 22.5435 40.0056 23.6923 39.3021C20.5301 37.3666 17.6115 35.0566 14.9998 32.4218C12.3723 29.8027 10.0686 26.8761 8.13859 23.7051C7.43716 24.8586 6.80238 26.0517 6.23737 27.2783C8.08577 30.0152 10.1937 32.5665 12.5318 34.8967C14.8542 37.2427 17.3996 39.3557 20.1317 41.2056Z" fill="white"/>
<path fill-rule="evenodd" clip-rule="evenodd" d="M8.13878 23.7042C7.43735 24.8578 6.80257 26.0509 6.23756 27.2774C5.4681 26.1313 4.75447 24.9486 4.0992 23.7333C4.75649 22.5083 5.47403 21.3167 6.24917 20.1631C6.81184 21.3783 7.44271 22.5606 8.13878 23.7042Z" fill="white"/>
<path fill-rule="evenodd" clip-rule="evenodd" d="M5.95576 5.94587C8.12025 3.77566 11.9584 3.4095 16.7602 4.92072C17.9101 5.2855 19.0359 5.72277 20.1307 6.22995C21.2722 5.45632 22.4518 4.74075 23.665 4.08594C21.7947 3.06481 19.8318 2.22431 17.8029 1.57576C11.7012 -0.339473 6.6161 0.331151 3.48475 3.47091C1.48397 5.47725 0.531616 8.25696 0.531616 11.4791C0.531616 15.1492 1.76727 19.3962 4.09807 23.734C4.75536 22.5089 5.47291 21.3174 6.24805 20.1638C3.49055 14.191 3.15472 8.75468 5.95576 5.94587Z" fill="white"/>
<path fill-rule="evenodd" clip-rule="evenodd" d="M20.1318 6.23047C14.669 9.95498 9.95852 14.6827 6.24913 20.1639C6.81179 21.3792 7.44268 22.5615 8.13873 23.7051C12.0434 17.3711 17.3694 12.0391 23.6925 8.13435C22.5436 7.43078 21.3547 6.79516 20.1318 6.23075V6.23047Z" fill="white"/>
<path d="M204.686 33.1942V35.1345C204.35 35.3332 203.964 35.4363 203.574 35.4328C201.98 35.4724 200.567 34.4074 200.159 32.8583C197.779 35.4739 193.935 36.1261 190.833 34.4411C187.73 32.7558 186.166 29.1652 187.037 25.73C187.909 22.2948 190.993 19.8959 194.518 19.9104C195.524 19.908 196.52 20.1045 197.449 20.4887C198.38 20.8729 199.224 21.4372 199.937 22.1493V20.2087H202.238V31.2536C202.238 32.6344 202.943 33.1942 203.759 33.1942H204.686ZM199.937 27.6717C199.937 24.6629 197.511 22.2238 194.518 22.2238C191.526 22.2238 189.1 24.6629 189.1 27.6717C189.1 30.6805 191.526 33.1194 194.518 33.1194C197.51 33.1158 199.932 30.6791 199.937 27.6717ZM207.587 12.6336H210.005V35.434H207.587V12.6336ZM183.414 27.5713C183.416 30.7417 181.544 33.6026 178.665 34.8256C175.787 36.0484 172.468 35.3938 170.249 33.1656V35.1313H167.943V12.1484H170.249V21.9766C172.469 19.7486 175.787 19.0937 178.665 20.3168C181.544 21.5398 183.416 24.4004 183.414 27.5713ZM181.109 27.5713C181.109 24.5233 178.678 22.0524 175.679 22.0524C172.68 22.0524 170.249 24.5233 170.249 27.571C170.249 30.6191 172.68 33.09 175.679 33.09C176.394 33.0915 177.103 32.9498 177.763 32.6732C178.423 32.3966 179.022 31.9905 179.523 31.479C180.545 30.437 181.115 29.0325 181.109 27.5713ZM148.122 27.672C148.122 23.3855 151.584 19.9104 155.857 19.9104C160.129 19.9104 163.592 23.3855 163.592 27.672C163.592 31.9589 160.13 35.434 155.856 35.434C154.841 35.4347 153.834 35.2344 152.896 34.8447C151.956 34.4549 151.104 33.8833 150.385 33.1625C149.666 32.4413 149.097 31.5853 148.709 30.6432C148.32 29.7011 148.121 28.6915 148.122 27.672ZM161.287 27.672C161.287 24.6632 158.856 22.224 155.856 22.224C152.858 22.224 150.427 24.6632 150.427 27.6723C150.427 30.6811 152.858 33.1202 155.856 33.1202C158.854 33.1168 161.283 30.6796 161.287 27.672ZM136.519 23.0361V23.712C136.558 29.5654 132.349 34.5381 126.688 35.3269C121.029 36.1157 115.677 32.475 114.19 26.8232C112.701 21.1719 115.541 15.2672 120.82 13.0324C126.1 10.797 132.177 12.9268 135.016 18.0062L133.002 19.1699C130.856 15.2871 126.298 13.547 122.196 15.0457C118.096 16.5448 115.64 20.8485 116.378 25.2456C117.115 29.6431 120.831 32.8606 125.185 32.8711C129.539 32.8815 133.27 29.6825 134.027 25.2888H125.199V23.0361H136.518H136.519ZM141.353 12.6334H143.771V35.434H141.353V12.6336V12.6334ZM109.928 12.6334V35.434H105.056V26.238H95.9818V35.434H91.0729V12.6336H95.9818V21.7916H105.056V12.6336H109.928V12.6334ZM89.1391 17.0798H83.5882V35.434H78.7727V17.0798H73.1848V12.6336H89.1391V17.0798ZM63.1473 17.0419V21.8299H70.4967V26.238H63.1473V31.026H71.7344V35.434H58.1974V12.6336H71.7344V17.0413H63.1473V17.0419Z" fill="white"/>
</g>
<defs>
<clipPath id="clip0">
<rect width="210.592" height="47.0254" fill="white" transform="translate(0 0.487305)"/>
</clipPath>
</defs>
</svg>
