<svg width="109" height="30" viewBox="0 0 109 30" fill="none" xmlns="http://www.w3.org/2000/svg">
<g clip-path="url(#clip0)">
<path d="M67.2522 28.05L56.7922 2.67001C56.7095 2.4388 56.6656 2.19553 56.6622 1.95001C56.6418 1.43149 56.8248 0.925537 57.1722 0.540008C57.3518 0.355906 57.5688 0.212446 57.8086 0.119297C58.0484 0.0261469 58.3053 -0.0145293 58.5622 8.47294e-06C58.9507 0.00550746 59.328 0.131275 59.6422 0.360008C59.9692 0.604988 60.2247 0.932996 60.3822 1.31001L70.3322 26.14L80.2822 1.31001C80.4424 0.931809 80.7015 0.60368 81.0322 0.360008C81.3463 0.131275 81.7236 0.00550746 82.1122 8.47294e-06C82.3673 -0.0130834 82.6224 0.0283001 82.8603 0.121407C83.0983 0.214514 83.3136 0.357211 83.4922 0.540008C83.8431 0.923977 84.0298 1.43011 84.0122 1.95001C84.0088 2.19553 83.9649 2.4388 83.8822 2.67001L73.4222 28.05C73.2431 28.6075 72.8943 29.0951 72.4246 29.4447C71.9548 29.7943 71.3876 29.9885 70.8022 30H69.8722C69.2867 29.9885 68.7195 29.7943 68.2498 29.4447C67.78 29.0951 67.4313 28.6075 67.2522 28.05V28.05Z" fill="white"/>
<path d="M88.4621 29.22C88.2848 29.0416 88.1456 28.8291 88.0528 28.5953C87.96 28.3616 87.9155 28.1114 87.9222 27.86V2.16C87.9158 1.90261 87.9602 1.64649 88.0529 1.40627C88.1455 1.16606 88.2846 0.946449 88.4621 0.759996C88.6362 0.575655 88.8475 0.430404 89.082 0.333862C89.3164 0.23732 89.5687 0.191691 89.8221 0.199996H106.822C107.062 0.194165 107.3 0.239293 107.52 0.33239C107.741 0.425487 107.939 0.564425 108.102 0.739996C108.276 0.90445 108.413 1.1031 108.506 1.32341C108.599 1.54372 108.645 1.78091 108.642 2.02C108.649 2.25663 108.604 2.49193 108.511 2.70952C108.418 2.92712 108.278 3.12179 108.102 3.28C107.932 3.4479 107.731 3.58035 107.509 3.66963C107.288 3.7589 107.051 3.80322 106.812 3.8H91.7821V13.16H105.302C105.542 13.1542 105.78 13.1993 106 13.2924C106.221 13.3855 106.419 13.5244 106.582 13.7C106.754 13.8659 106.89 14.0648 106.983 14.2848C107.076 14.5048 107.123 14.7413 107.122 14.98C107.129 15.2166 107.084 15.4519 106.991 15.6695C106.898 15.8871 106.758 16.0818 106.582 16.24C106.414 16.4067 106.214 16.5385 105.994 16.6277C105.774 16.7169 105.539 16.7619 105.302 16.76H91.7821V26.16H106.812C107.053 26.1527 107.293 26.1972 107.516 26.2903C107.738 26.3834 107.938 26.5231 108.102 26.7C108.277 26.8656 108.415 27.0659 108.508 27.288C108.601 27.5101 108.647 27.7492 108.642 27.99C108.649 28.2266 108.604 28.4619 108.511 28.6795C108.418 28.8971 108.278 29.0918 108.102 29.25C107.932 29.4161 107.73 29.5467 107.508 29.6343C107.287 29.7218 107.05 29.7645 106.812 29.76H89.8221C89.5694 29.7784 89.3158 29.7394 89.0803 29.6458C88.8447 29.5523 88.6334 29.4067 88.4621 29.22V29.22Z" fill="white"/>
<path d="M59.1622 27.33L48.6922 1.95C48.5137 1.39409 48.1664 0.907602 47.6986 0.558137C47.2309 0.208673 46.6659 0.0135908 46.0822 0L45.1622 0C44.5767 0.0115316 44.0095 0.205665 43.5398 0.555275C43.0701 0.904886 42.7213 1.39251 42.5422 1.95L37.9922 13.01H34.5422C34.0461 13.0152 33.572 13.2153 33.2222 13.567C32.8723 13.9188 32.6748 14.3939 32.6722 14.89V14.91C32.6748 15.4061 32.8723 15.8812 33.2222 16.233C33.572 16.5847 34.0461 16.7848 34.5422 16.79H36.3922L32.0522 27.33C31.9695 27.5612 31.9256 27.8045 31.9222 28.05C31.9018 28.5685 32.0849 29.0745 32.4322 29.46C32.6118 29.6441 32.8289 29.7876 33.0686 29.8807C33.3084 29.9739 33.5654 30.0145 33.8222 30C34.2107 29.9945 34.588 29.8687 34.9022 29.64C35.2292 29.395 35.4847 29.067 35.6422 28.69L40.4322 16.79H43.7222C44.2182 16.7848 44.6924 16.5847 45.0422 16.233C45.3921 15.8812 45.5896 15.4061 45.5922 14.91V14.86C45.5896 14.3639 45.3921 13.8888 45.0422 13.537C44.6924 13.1853 44.2182 12.9852 43.7222 12.98H41.9422L45.6222 3.86L55.5722 28.69C55.7297 29.067 55.9852 29.395 56.3122 29.64C56.6263 29.8687 57.0036 29.9945 57.3922 30C57.6507 30.016 57.9095 29.976 58.1511 29.8828C58.3928 29.7896 58.6114 29.6454 58.7922 29.46C59.1359 29.0729 59.3152 28.5671 59.2922 28.05C59.3048 27.8041 59.2638 27.5585 59.1722 27.33H59.1622Z" fill="white"/>
<path d="M27.9022 27.33L17.4422 1.95C17.2625 1.39091 16.9122 0.902157 16.4405 0.5524C15.9688 0.202643 15.3993 0.00946291 14.8122 0L13.8922 0C13.3067 0.0115316 12.7395 0.205665 12.2698 0.555275C11.8 0.904886 11.4513 1.39251 11.2722 1.95L6.72217 13.01H3.27217C2.77611 13.0152 2.302 13.2153 1.95215 13.567C1.6023 13.9188 1.40476 14.3939 1.40217 14.89V14.91C1.40476 15.4061 1.6023 15.8812 1.95215 16.233C2.302 16.5847 2.77611 16.7848 3.27217 16.79H5.12217L0.782165 27.33C0.699488 27.5612 0.655564 27.8045 0.652166 28.05C0.631826 28.5685 0.81483 29.0745 1.16217 29.46C1.34182 29.6441 1.55884 29.7876 1.79862 29.8807C2.03839 29.9739 2.29534 30.0145 2.55217 30C2.94072 29.9945 3.31802 29.8687 3.63217 29.64C3.95917 29.395 4.21467 29.067 4.37217 28.69L9.16217 16.79H12.4722C12.97 16.7874 13.4466 16.5885 13.7986 16.2365C14.1506 15.8845 14.3495 15.4078 14.3522 14.91V14.86C14.3495 14.3622 14.1506 13.8855 13.7986 13.5335C13.4466 13.1815 12.97 12.9826 12.4722 12.98H10.7022L14.3522 3.86L24.3022 28.69C24.4597 29.067 24.7152 29.395 25.0422 29.64C25.3563 29.8687 25.7336 29.9945 26.1222 30C26.3806 30.016 26.6395 29.976 26.8811 29.8828C27.1227 29.7896 27.3414 29.6454 27.5222 29.46C27.8659 29.0729 28.0452 28.5671 28.0222 28.05C28.0348 27.8041 27.9938 27.5585 27.9022 27.33V27.33Z" fill="white"/>
</g>
<defs>
<clipPath id="clip0">
<rect width="107.98" height="30" fill="white" transform="translate(0.652161)"/>
</clipPath>
</defs>
</svg>
