<svg width="257" height="143" viewBox="0 0 257 143" fill="none" xmlns="http://www.w3.org/2000/svg">
<path d="M111.393 8.68487C111.393 10.2463 110.93 11.7727 110.063 13.071C109.197 14.3693 107.964 15.3812 106.523 15.9787C105.081 16.5763 103.495 16.7326 101.964 16.428C100.434 16.1234 99.0282 15.3715 97.9248 14.2674C96.8215 13.1632 96.0701 11.7565 95.7657 10.2251C95.4612 8.69362 95.6175 7.10624 96.2146 5.66365C96.8118 4.22106 97.823 2.98805 99.1204 2.12056C100.418 1.25306 101.943 0.790039 103.504 0.790039C105.596 0.790039 107.603 1.62181 109.082 3.10238C110.562 4.58295 111.393 6.59103 111.393 8.68487V8.68487ZM95.6141 48.159C95.6141 57.5277 92.8378 66.686 87.6363 74.4758C82.4348 82.2656 75.0418 88.337 66.392 91.9222C57.7423 95.5075 48.2244 96.4455 39.0419 94.6178C29.8594 92.7901 21.4247 88.2786 14.8045 81.6539C8.18423 75.0293 3.6758 66.5889 1.84929 57.4002C0.0227741 48.2115 0.960207 38.6872 4.54305 30.0317C8.12588 21.3761 14.1932 13.9781 21.9778 8.77315C29.7623 3.56818 38.9145 0.790039 48.2769 0.790039C60.8315 0.790039 72.8719 5.78068 81.7493 14.6641C90.6268 23.5475 95.6141 35.596 95.6141 48.159ZM79.835 48.159C79.835 41.9132 77.9842 35.8077 74.5165 30.6145C71.0489 25.4213 66.1201 21.3737 60.3537 18.9835C54.5872 16.5934 48.2419 15.968 42.1202 17.1865C35.9985 18.405 30.3754 21.4126 25.9619 25.8291C21.5485 30.2455 18.5428 35.8724 17.3252 41.9982C16.1075 48.124 16.7324 54.4735 19.121 60.2439C21.5096 66.0143 25.5544 70.9463 30.7441 74.4162C35.9338 77.8862 42.0353 79.7383 48.2769 79.7383C56.6466 79.7383 64.6736 76.4112 70.5918 70.489C76.5101 64.5667 79.835 56.5344 79.835 48.159V48.159ZM93.2998 97.8438C92.5703 97.1111 91.7037 96.5295 90.7495 96.1319C89.7954 95.7344 88.7723 95.5289 87.7387 95.527C86.7052 95.5251 85.6814 95.727 84.7258 96.1211C83.7702 96.5151 82.9015 97.0937 82.1693 97.8237L82.1493 97.8438L50.5911 129.423C49.1264 130.906 48.3076 132.908 48.3136 134.993C48.3196 137.078 49.1498 139.075 50.623 140.549C52.0961 142.023 54.0924 142.854 56.1758 142.86C58.2591 142.866 60.2601 142.047 61.7417 140.581L93.2998 109.002C94.7782 107.527 95.6109 105.526 95.6146 103.437C95.6184 101.348 94.793 99.3437 93.3199 97.8639L93.2998 97.8438Z" fill="white"/>
<path d="M139.566 48.4578C134.704 48.4578 130.806 45.7497 130.806 40.1505V30.7428H126.174V25.2346H130.806V18.8556H137.089V25.2346H143.556V30.7428H137.089V38.9123C137.089 41.7123 138.282 42.8128 140.987 42.8128C141.861 42.8329 142.732 42.6932 143.556 42.4003V47.9506C142.26 48.3255 140.914 48.4966 139.566 48.4578V48.4578ZM148.967 13.7617H155.25V27.8518C156 26.8288 156.992 26.0081 158.137 25.4633C159.281 24.9184 160.544 24.6666 161.81 24.7303C167.356 24.7303 170.66 28.7695 170.66 34.7352V48.1822H164.377V35.7907C164.377 32.4863 162.956 30.4672 160.341 30.4672C157.452 30.4672 155.25 32.5782 155.25 36.984V48.1803H148.967V13.7617ZM187.906 48.6904C186.312 48.7508 184.723 48.4811 183.238 47.8983C181.753 47.3155 180.404 46.4321 179.276 45.3034C178.148 44.1746 177.265 42.825 176.682 41.3389C176.1 39.8528 175.83 38.2624 175.89 36.6672C175.852 35.0782 176.139 33.4982 176.734 32.0242C177.328 30.5502 178.217 29.2134 179.347 28.0958C180.477 26.9783 181.822 26.1036 183.302 25.5255C184.782 24.9474 186.364 24.6781 187.951 24.7341C194.694 24.7341 200.244 29.5533 199.922 38.1811H182.039C182.315 40.8893 184.334 43.229 188.231 43.229C190.431 43.229 192.359 42.2654 193.092 40.7046H199.651C198.271 45.3362 193.73 48.6865 187.906 48.6865V48.6904ZM182.264 34.049H193.043C192.801 32.8364 192.139 31.7481 191.174 30.9757C190.209 30.2034 189.003 29.7966 187.768 29.827C186.499 29.7633 185.25 30.1526 184.242 30.9254C183.234 31.6982 182.533 32.8043 182.265 34.0462L182.264 34.049ZM134.107 81.1606C134.887 83.5013 136.675 84.5568 139.29 84.5568C142.042 84.5568 144.472 82.7663 144.472 79.1414V76.4333C143.672 77.4173 142.655 78.2028 141.502 78.7282C140.348 79.2537 139.088 79.5048 137.822 79.462C131.859 79.462 126.998 74.3222 126.998 67.8973C126.998 61.4264 131.859 56.2866 137.822 56.2866C139.093 56.2412 140.358 56.4958 141.513 57.0299C142.669 57.5641 143.682 58.3627 144.472 59.3613V56.7881H150.755V78.3127C150.755 86.619 145.113 89.7856 139.152 89.7856C132.684 89.7856 128.419 86.0688 127.963 81.1577L134.107 81.1606ZM139.152 62.0216C137.989 62.0125 136.849 62.3493 135.878 62.9893C134.906 63.6293 134.147 64.5437 133.695 65.6164C133.244 66.6891 133.121 67.8717 133.343 69.0144C133.564 70.157 134.119 71.208 134.939 72.0342C135.758 72.8604 136.804 73.4244 137.944 73.6547C139.084 73.885 140.267 73.7712 141.343 73.3278C142.418 72.8844 143.337 72.1314 143.985 71.1642C144.632 70.197 144.977 69.0593 144.977 67.8954C145 67.1219 144.866 66.3517 144.582 65.6318C144.299 64.9119 143.872 64.2572 143.327 63.7076C142.783 63.1581 142.132 62.7251 141.415 62.4351C140.698 62.1451 139.93 62.0041 139.157 62.0207L139.152 62.0216ZM157.727 56.789H164.01V60.4608C164.448 59.3044 165.226 58.3081 166.242 57.6035C167.257 56.8989 168.462 56.5191 169.698 56.5144C170.411 56.5015 171.122 56.5941 171.808 56.789V63.169C170.895 62.842 169.933 62.6711 168.964 62.6637C165.983 62.6637 164.01 65.0044 164.01 68.7681V79.7386H157.727V56.789ZM185.251 56.2837C186.513 56.2515 187.765 56.5121 188.91 57.045C190.055 57.5779 191.061 58.3687 191.849 59.3555V56.7881H198.132V79.7386H191.849V77.1653C191.06 78.1534 190.053 78.9452 188.907 79.4786C187.761 80.0121 186.507 80.2727 185.244 80.24C179.145 80.24 174.467 74.7787 174.467 68.2619C174.467 61.7451 179.147 56.2837 185.251 56.2837V56.2837ZM186.582 62.0254C183.139 62.0254 180.803 64.6867 180.803 68.2667C180.803 71.8466 183.141 74.5088 186.582 74.5088C190.023 74.5088 192.36 71.8456 192.36 68.2667C192.36 64.6877 190.017 62.0207 186.577 62.0207L186.582 62.0254ZM205.157 56.7928H211.44V59.3555C212.242 58.3713 213.258 57.5829 214.411 57.0502C215.563 56.5175 216.821 56.2544 218.09 56.2809C224.19 56.2809 228.869 61.7422 228.869 68.259C228.869 74.7758 224.19 80.2371 218.09 80.2371C216.821 80.2634 215.563 80.0002 214.411 79.4675C213.258 78.9348 212.243 78.1465 211.44 77.1625V89.3272H205.157V56.7928ZM216.713 62.0207C213.27 62.0207 210.934 64.6819 210.934 68.2619C210.934 71.8418 213.27 74.5041 216.713 74.5041C220.156 74.5041 222.492 71.8409 222.492 68.2619C222.492 64.6829 220.149 62.0207 216.713 62.0207ZM234.37 45.3152H240.653V59.4044C241.403 58.3816 242.395 57.5611 243.539 57.0164C244.684 56.4718 245.946 56.22 247.212 56.2837C252.758 56.2837 256.063 60.3221 256.063 66.2886V79.7386H249.78V67.3432C249.78 64.0398 248.358 62.0207 245.744 62.0207C242.855 62.0207 240.653 64.1317 240.653 68.5365V79.7386H234.37V45.3152Z" fill="white"/>
</svg>
